<svg height="488pt" viewBox="0 -5 488 487" width="488pt" xmlns="http://www.w3.org/2000/svg"><path d="m52 116.105469c-2.207031 0-4-1.792969-4-4v-64.667969c0-2.210938 1.792969-4 4-4s4 1.789062 4 4v64.664062c0 2.210938-1.792969 4.003907-4 4.003907zm0 0" fill="#a4c9ff"/><path d="m52 116.105469c-2.207031 0-4-1.792969-4-4v-64.667969c0-2.210938 1.792969-4 4-4s4 1.789062 4 4v64.664062c0 2.210938-1.792969 4.003907-4 4.003907zm0 0" fill="#3762cc"/><path d="m88.65625 47.4375h-36.65625v28h36.65625c1.957031 0 2.746094-2.519531 1.144531-3.640625l-12.460937-8.722656c-1.136719-.796875-1.136719-2.480469 0-3.277344l12.460937-8.722656c1.601563-1.121094.808594-3.636719-1.144531-3.636719zm0 0" fill="#ffea92"/><path d="m88.65625 79.4375h-36.65625c-2.207031 0-4-1.792969-4-4v-28c0-2.207031 1.792969-4 4-4h36.65625c2.632812 0 4.933594 1.6875 5.722656 4.199219.792969 2.507812-.125 5.207031-2.285156 6.71875l-10.121094 7.082031 10.121094 7.085938c2.15625 1.507812 3.074219 4.207031 2.28125 6.71875-.789062 2.507812-3.085938 4.195312-5.71875 4.195312zm-32.65625-8h26.308594l-7.261719-5.085938c-1.601563-1.121093-2.5625-2.957031-2.5625-4.914062s.960937-3.792969 2.5625-4.914062l7.261719-5.085938h-26.308594zm32.65625-20h.019531zm0 0" fill="#3762cc"/><path d="m127.445312 84.5625c-2.761718 6.039062-7.34375 11.066406-13.050781 14.390625-1.023437.597656-1.023437 2.042969 0 2.640625 5.707031 3.324219 10.289063 8.355469 13.050781 14.390625.535157 1.175781 2.207032 1.175781 2.746094 0 2.761719-6.035156 7.347656-11.066406 13.050782-14.390625 1.023437-.597656 1.023437-2.042969 0-2.640625-5.703126-3.324219-10.285157-8.351563-13.050782-14.390625-.539062-1.175781-2.210937-1.175781-2.746094 0zm0 0" fill="#ffea92"/><path d="m128.300781 78.671875c-3.488281-.46875-3.492187-2.757813-3.5-8.289063-.003906-2.597656 0-6.0625.003907-9.523437.011718-6.921875.035156-13.839844.035156-13.839844.007812-2.207031 1.796875-3.988281 4-3.988281h.011718c2.207032.007812 3.996094 1.804688 3.988282 4.011719-.035156 10.347656-.0625 26.1875-.011719 27.40625l-3.988281.257812zm0 0" fill="#f9a7a7"/><path d="m128.300781 158.472656c-3.488281-.46875-3.492187-2.757812-3.5-8.285156-.003906-2.597656 0-6.0625.003907-9.527344.011718-6.921875.035156-13.839844.035156-13.839844.007812-2.203124 1.796875-3.984374 4-3.984374h.011718c2.207032.003906 3.996094 1.800781 3.988282 4.011718-.035156 10.347656-.0625 26.183594-.011719 27.402344l-3.988281.257812zm0 0" fill="#f9a7a7"/><path d="m181.707031 104.773438c-.003906 0-.007812 0-.011719 0-10.347656-.035157-26.183593-.066407-27.402343-.011719l-.257813-3.992188-3.964844-.535156c.46875-3.492187 2.757813-3.492187 8.289063-3.5 2.597656-.003906 6.058594 0 9.523437.003906 6.921876.011719 13.839844.035157 13.839844.035157 2.207032.003906 3.992188 1.800781 3.988282 4.011718-.011719 2.203125-1.800782 3.988282-4.003907 3.988282zm-23.699219-3.558594h.019532zm0 0" fill="#f9a7a7"/><path d="m105.964844 104.808594c-.003906 0-.007813 0-.011719 0-10.347656-.03125-26.179687-.0625-27.402344-.011719l-.257812-3.988281-3.964844-.535156c.46875-3.492188 2.757813-3.492188 8.289063-3.5 2.59375-.003907 6.0625 0 9.523437.003906 6.917969.011718 13.835937.03125 13.835937.03125 2.210938.007812 3.996094 1.804687 3.988282 4.011718-.003906 2.207032-1.792969 3.988282-4 3.988282zm-23.695313-3.550782h.019531zm0 0" fill="#f9a7a7"/><path d="m159.699219 134.46875c-1.027344 0-2.058594-.394531-2.835938-1.179688-5.753906-5.800781-15.191406-15.277343-16.015625-16.035156l2.6875-2.933594-2.402344-3.324218c2.78125-2.003906 4.433594-.359375 7.730469 2.925781 1.527344 1.519531 3.558594 3.554687 5.585938 5.589844 4.046875 4.066406 8.089843 8.140625 8.089843 8.140625 1.558594 1.566406 1.546876 4.101562-.019531 5.65625-.785156.777344-1.800781 1.160156-2.820312 1.160156zm-13.8125-17.039062h.019531zm0 0" fill="#f9a7a7"/><path d="m116.5 91.328125c-1.03125 0-2.058594-.394531-2.839844-1.183594-5.753906-5.796875-15.1875-15.277343-16.011718-16.035156l2.6875-2.929687-2.402344-3.324219c2.78125-2.003907 4.433594-.359375 7.730468 2.921875 1.527344 1.523437 3.554688 3.558594 5.582032 5.59375 4.050781 4.066406 8.09375 8.140625 8.09375 8.140625 1.554687 1.566406 1.546875 4.097656-.023438 5.652343-.777344.777344-1.796875 1.164063-2.816406 1.164063zm-13.808594-17.042969h.019532zm0 0" fill="#f9a7a7"/><path d="m100.300781 134.46875c-1.03125 0-2.058593-.394531-2.839843-1.179688-1.554688-1.570312-1.546876-4.101562.023437-5.65625 5.796875-5.753906 15.277344-15.191406 16.035156-16.015624l2.929688 2.6875 3.328125-2.402344c2.003906 2.78125.355468 4.4375-2.925782 7.730468-1.523437 1.527344-3.554687 3.558594-5.589843 5.585938-4.066407 4.050781-8.140625 8.089844-8.140625 8.089844-.78125.777344-1.800782 1.160156-2.820313 1.160156zm0 0" fill="#f9a7a7"/><path d="m143.445312 91.273438c-1.03125 0-2.058593-.394532-2.839843-1.183594-1.554688-1.566406-1.546875-4.101563.023437-5.65625 5.796875-5.753906 15.277344-15.191406 16.035156-16.011719l2.929688 2.6875 3.328125-2.402344c2.003906 2.777344.355469 4.433594-2.925781 7.730469-1.523438 1.527344-3.554688 3.554688-5.59375 5.582031-4.0625 4.050781-8.136719 8.09375-8.136719 8.09375-.785156.773438-1.804687 1.160157-2.820313 1.160157zm0 0" fill="#f9a7a7"/><path d="m114.199219 56.742188c-1.210938 2.644531-3.214844 4.847656-5.714844 6.304687-.445313.261719-.445313.894531 0 1.15625 2.5 1.453125 4.503906 3.65625 5.714844 6.300781.238281.515625.96875.515625 1.203125 0 1.210937-2.644531 3.214844-4.847656 5.714844-6.300781.445312-.261719.445312-.894531 0-1.15625-2.5-1.457031-4.503907-3.660156-5.714844-6.304687-.238282-.511719-.96875-.511719-1.203125 0zm0 0" fill="#ffea92"/><path d="m142.195312 56.742188c-1.210937 2.644531-3.214843 4.847656-5.714843 6.304687-.445313.261719-.445313.894531 0 1.15625 2.5 1.453125 4.503906 3.65625 5.714843 6.300781.238282.515625.96875.515625 1.203126 0 1.210937-2.644531 3.214843-4.847656 5.714843-6.300781.445313-.261719.445313-.894531 0-1.15625-2.5-1.457031-4.503906-3.660156-5.714843-6.304687-.234376-.511719-.964844-.511719-1.203126 0zm0 0" fill="#ffea92"/><path d="m114.199219 133.792969c-1.210938 2.644531-3.214844 4.84375-5.714844 6.300781-.445313.261719-.445313.894531 0 1.15625 2.5 1.457031 4.503906 3.65625 5.714844 6.300781.238281.515625.96875.515625 1.203125 0 1.210937-2.644531 3.214844-4.84375 5.714844-6.300781.445312-.261719.445312-.894531 0-1.15625-2.5-1.457031-4.503907-3.65625-5.714844-6.300781-.238282-.515625-.96875-.515625-1.203125 0zm0 0" fill="#ffea92"/><path d="m142.195312 133.792969c-1.210937 2.644531-3.214843 4.84375-5.714843 6.300781-.445313.261719-.445313.894531 0 1.15625 2.5 1.457031 4.503906 3.65625 5.714843 6.300781.238282.515625.96875.515625 1.203126 0 1.210937-2.644531 3.214843-4.84375 5.714843-6.300781.445313-.261719.445313-.894531 0-1.15625-2.5-1.457031-4.503906-3.65625-5.714843-6.300781-.234376-.515625-.964844-.515625-1.203126 0zm0 0" fill="#ffea92"/><path d="m167.269531 107.929688c-1.210937 2.644531-3.21875 4.847656-5.714843 6.300781-.449219.261719-.449219.894531 0 1.15625 2.496093 1.457031 4.503906 3.660156 5.714843 6.304687.234375.511719.964844.511719 1.199219 0 1.210938-2.644531 3.21875-4.847656 5.714844-6.304687.449218-.261719.449218-.894531 0-1.15625-2.496094-1.453125-4.503906-3.65625-5.714844-6.300781-.234375-.515626-.964844-.515626-1.199219 0zm0 0" fill="#ffea92"/><path d="m167.269531 79.933594c-1.210937 2.640625-3.21875 4.84375-5.714843 6.300781-.449219.261719-.449219.894531 0 1.15625 2.496093 1.457031 4.503906 3.65625 5.714843 6.300781.234375.515625.964844.515625 1.199219 0 1.210938-2.644531 3.21875-4.84375 5.714844-6.300781.449218-.261719.449218-.894531 0-1.15625-2.496094-1.457031-4.503906-3.660156-5.714844-6.300781-.234375-.515625-.964844-.515625-1.199219 0zm0 0" fill="#ffea92"/><path d="m91.53125 107.929688c-1.210938 2.644531-3.21875 4.847656-5.714844 6.300781-.449218.261719-.449218.894531 0 1.15625 2.496094 1.457031 4.503906 3.660156 5.714844 6.304687.234375.511719.964844.511719 1.199219 0 1.210937-2.644531 3.21875-4.847656 5.714843-6.304687.449219-.261719.449219-.894531 0-1.15625-2.496093-1.453125-4.503906-3.65625-5.714843-6.300781-.234375-.515626-.964844-.515626-1.199219 0zm0 0" fill="#ffea92"/><path d="m91.53125 79.933594c-1.210938 2.640625-3.21875 4.84375-5.714844 6.300781-.449218.261719-.449218.894531 0 1.15625 2.496094 1.457031 4.503906 3.65625 5.714844 6.300781.234375.515625.964844.515625 1.199219 0 1.210937-2.644531 3.21875-4.84375 5.714843-6.300781.449219-.261719.449219-.894531 0-1.15625-2.496093-1.457031-4.503906-3.660156-5.714843-6.300781-.234375-.515625-.964844-.515625-1.199219 0zm0 0" fill="#ffea92"/><path d="m142 278.199219h202v29.242187h-202zm0 0" fill="#a4c9ff"/><path d="m92 307.441406h304v165.707032h-304zm0 0" fill="#e0ebfc"/><path d="m396 477.148438h-304c-2.207031 0-4-1.789063-4-4v-165.707032c0-2.207031 1.792969-4 4-4h304c2.207031 0 4 1.792969 4 4v165.707032c0 2.210937-1.792969 4-4 4zm-300-8h296v-157.707032h-296zm0 0" fill="#3762cc"/><path d="m244 73.816406c-2.207031 0-4-1.789062-4-4v-64.667968c0-2.207032 1.792969-4 4-4s4 1.792968 4 4v64.667968c0 2.210938-1.792969 4-4 4zm0 0" fill="#3762cc"/><path d="m335.4375 177.816406h-182.875c-1.96875 0-3.5625-1.597656-3.5625-3.5625v-32.542968c0-1.96875 1.597656-3.5625 3.5625-3.5625h182.875c1.964844 0 3.558594 1.597656 3.558594 3.5625v32.542968c.003906 1.96875-1.59375 3.5625-3.558594 3.5625zm0 0" fill="#e0ebfc"/><path d="m164 177.816406h160v79.832032h-160zm0 0" fill="#f9cfcf"/><path d="m156 138.148438 84.605469-79.472657c1.761719-1.652343 5.03125-1.652343 6.789062 0l84.605469 79.472657zm0 0" fill="#f9a7a7"/><path d="m335.4375 181.816406h-182.875c-4.171875 0-7.5625-3.390625-7.5625-7.5625v-32.542968c0-4.167969 3.390625-7.5625 7.5625-7.5625h182.875c4.171875 0 7.5625 3.394531 7.5625 7.5625v32.542968c0 4.171875-3.390625 7.5625-7.5625 7.5625zm-182.4375-8h182v-31.667968h-182zm0 0" fill="#3762cc"/><path d="m324 261.648438h-160c-2.207031 0-4-1.789063-4-4v-79.832032c0-2.207031 1.792969-4 4-4h160c2.207031 0 4 1.792969 4 4v79.832032c0 2.210937-1.792969 4-4 4zm-156-8h152v-71.832032h-152zm0 0" fill="#3762cc"/><path d="m332 142.148438h-176c-1.640625 0-3.117188-1-3.71875-2.527344-.601562-1.523438-.214844-3.261719.980469-4.386719l84.605469-79.472656c3.324218-3.125 8.941406-3.128907 12.265624 0l84.605469 79.472656c1.195313 1.125 1.582031 2.863281.980469 4.386719-.601562 1.527344-2.078125 2.527344-3.71875 2.527344zm-165.898438-8h155.796876l-77.246094-72.554688c-.242188-.210938-1.066406-.210938-1.3125 0zm0 0" fill="#3762cc"/><path d="m249.597656 187.796875c-3.058594-2.898437-7.839844-2.921875-10.933594-.0625l-96.664062 89.414063v13.050781h202v-13.050781zm0 0" fill="#f9a7a7"/><path d="m344 294.199219h-202c-2.207031 0-4-1.792969-4-4v-13.050781c0-1.113282.464844-2.179688 1.285156-2.933594l96.664063-89.417969c4.621093-4.273437 11.824219-4.234375 16.398437.09375l94.398438 89.355469c.800781.757812 1.25 1.804687 1.25 2.90625v13.050781c.003906 2.203125-1.789063 3.996094-3.996094 3.996094zm-198-8h194v-7.328125l-93.152344-88.167969c-1.523437-1.441406-3.925781-1.457031-5.464844-.03125l-95.382812 88.226563zm0 0" fill="#3762cc"/><path d="m436 116.105469c-2.207031 0-4-1.792969-4-4v-64.667969c0-2.210938 1.792969-4 4-4s4 1.789062 4 4v64.664062c0 2.210938-1.792969 4.003907-4 4.003907zm0 0" fill="#3762cc"/><path d="m468 473.148438h-72v-208h80v200c0 4.417968-3.582031 8-8 8zm0 0" fill="#f9cfcf"/><path d="m92 473.148438h-72c-4.417969 0-8-3.582032-8-8v-200h80zm0 0" fill="#f9cfcf"/><path d="m96 265.148438h-88c-2.210938 0-4-1.789063-4-4v-28c0-2.207032 1.789062-4 4-4h88c2.210938 0 4 1.792968 4 4v28c0 2.210937-1.789062 4-4 4zm0 0" fill="#e0ebfc"/><path d="m480 265.148438h-88c-2.210938 0-4-1.789063-4-4v-28c0-2.207032 1.789062-4 4-4h88c2.210938 0 4 1.792968 4 4v28c0 2.210937-1.789062 4-4 4zm0 0" fill="#e0ebfc"/><path d="m12 205.148438h80v24h-80zm0 0" fill="#f9cfcf"/><path d="m396 205.148438h80v24h-80zm0 0" fill="#f9cfcf"/><path d="m96 205.148438h-88c-2.210938 0-4-1.789063-4-4v-28c0-2.207032 1.789062-4 4-4h88c2.210938 0 4 1.792968 4 4v28c0 2.210937-1.789062 4-4 4zm0 0" fill="#a4c9ff"/><path d="m480 205.148438h-88c-2.210938 0-4-1.789063-4-4v-28c0-2.207032 1.789062-4 4-4h88c2.210938 0 4 1.792968 4 4v28c0 2.210937-1.789062 4-4 4zm0 0" fill="#a4c9ff"/><path d="m70 335.648438h-36v-32c0-9.941407 8.058594-18 18-18s18 8.058593 18 18zm0 0" fill="#f9a7a7"/><path d="m454 335.648438h-36v-32c0-9.941407 8.058594-18 18-18s18 8.058593 18 18zm0 0" fill="#f9a7a7"/><path d="m306 281.589844v22.460937c0 1.875-1.789062 3.390625-4 3.390625h-32c-2.210938 0-4-1.515625-4-3.390625v-22.460937c0-1.871094-1.789062-3.390625-4-3.390625h-36c-2.210938 0-4 1.519531-4 3.390625v22.460937c0 1.875-1.789062 3.390625-4 3.390625h-32c-2.210938 0-4-1.515625-4-3.390625v-22.460937c0-1.871094-1.789062-3.390625-4-3.390625h-40c-2.210938 0-4 1.519531-4 3.390625v184.273437c0 4.023438 3.582031 7.285157 8 7.285157h204c4.417969 0 8-3.261719 8-7.285157v-184.273437c0-1.871094-1.789062-3.390625-4-3.390625h-40c-2.210938 0-4 1.519531-4 3.390625zm0 0" fill="#f9cfcf"/><path d="m286.726562 473.148438h-85.453124v-51.269532c0-23.597656 19.128906-42.730468 42.730468-42.730468 23.597656 0 42.726563 19.132812 42.726563 42.730468v51.269532zm0 0" fill="#4671c6"/><path d="m244 368.601562c-14.578125 0-26.398438-11.820312-26.398438-26.402343v-17.597657c0-2.429687 1.96875-4.402343 4.398438-4.402343h44c2.429688 0 4.398438 1.972656 4.398438 4.402343v17.597657c0 14.582031-11.820313 26.402343-26.398438 26.402343zm0 0" fill="#6bdddd"/><path d="m244 356.386719c-8.246094 0-14.960938-6.710938-14.960938-14.960938v-11.21875h29.921876v11.21875c0 8.25-6.714844 14.960938-14.960938 14.960938zm0 0" fill="#ffea92"/><path d="m394 169.148438 38.65625-58.902344c1.578125-2.40625 5.109375-2.40625 6.6875 0l38.65625 58.902344zm0 0" fill="#f9a7a7"/><path d="m10 169.148438 38.65625-58.902344c1.578125-2.40625 5.109375-2.40625 6.6875 0l38.65625 58.902344zm0 0" fill="#f9a7a7"/><g fill="#3762cc"><path d="m468 477.148438h-72c-2.207031 0-4-1.789063-4-4v-208c0-2.207032 1.792969-4 4-4h80c2.207031 0 4 1.792968 4 4v200c0 6.621093-5.382812 12-12 12zm-68-8h68c2.207031 0 4-1.792969 4-4v-196h-72zm0 0"/><path d="m92 477.148438h-72c-6.617188 0-12-5.378907-12-12v-200c0-2.207032 1.792969-4 4-4h80c2.207031 0 4 1.792968 4 4v208c0 2.210937-1.792969 4-4 4zm-76-208v196c0 2.207031 1.792969 4 4 4h68v-200zm0 0"/><path d="m96 269.148438h-88c-4.410156 0-8-3.585938-8-8v-28c0-4.410157 3.589844-8 8-8h88c4.410156 0 8 3.589843 8 8v28c0 4.414062-3.589844 8-8 8zm-88-36v28h88.003906l-.003906-28zm0 0"/><path d="m480 269.148438h-88c-4.410156 0-8-3.585938-8-8v-28c0-4.410157 3.589844-8 8-8h88c4.410156 0 8 3.589843 8 8v28c0 4.414062-3.589844 8-8 8zm-88-36v28h88.003906l-.003906-28zm0 0"/><path d="m92 233.148438h-80c-2.207031 0-4-1.789063-4-4v-24c0-2.207032 1.792969-4 4-4h80c2.207031 0 4 1.792968 4 4v24c0 2.210937-1.792969 4-4 4zm-76-8h72v-16h-72zm0 0"/><path d="m476 233.148438h-80c-2.207031 0-4-1.789063-4-4v-24c0-2.207032 1.792969-4 4-4h80c2.207031 0 4 1.792968 4 4v24c0 2.210937-1.792969 4-4 4zm-76-8h72v-16h-72zm0 0"/><path d="m96 209.148438h-88c-4.410156 0-8-3.585938-8-8v-28c0-4.410157 3.589844-8 8-8h88c4.410156 0 8 3.589843 8 8v28c0 4.414062-3.589844 8-8 8zm-88-36v28h88.003906l-.003906-28zm0 0"/><path d="m480 209.148438h-88c-4.410156 0-8-3.585938-8-8v-28c0-4.410157 3.589844-8 8-8h88c4.410156 0 8 3.589843 8 8v28c0 4.414062-3.589844 8-8 8zm-88-36v28h88.003906l-.003906-28zm0 0"/><path d="m478 173.148438h-84c-1.46875 0-2.820312-.804688-3.519531-2.097657s-.628907-2.867187.175781-4.09375l38.65625-58.90625c1.480469-2.257812 3.980469-3.609375 6.6875-3.609375s5.207031 1.347656 6.6875 3.609375l38.65625 58.90625c.804688 1.226563.875 2.800781.175781 4.09375s-2.050781 2.097657-3.519531 2.097657zm-76.589844-8h69.183594l-34.59375-52.707032zm0 0"/><path d="m94 173.148438h-84c-1.46875 0-2.820312-.804688-3.519531-2.097657s-.628907-2.867187.175781-4.09375l38.65625-58.90625c1.480469-2.257812 3.980469-3.609375 6.6875-3.609375s5.207031 1.347656 6.6875 3.609375l38.65625 58.90625c.804688 1.226563.875 2.800781.175781 4.09375s-2.050781 2.097657-3.519531 2.097657zm-76.589844-8h69.183594l-34.59375-52.707032zm0 0"/><path d="m346 477.148438h-204c-6.617188 0-12-5.0625-12-11.285157v-184.273437c0-4.074219 3.589844-7.390625 8-7.390625h40c4.410156 0 8 3.316406 8 7.390625v21.851562h32v-21.851562c0-4.074219 3.589844-7.390625 8-7.390625h36c4.410156 0 8 3.316406 8 7.390625v21.851562h32v-21.851562c0-4.074219 3.589844-7.390625 8-7.390625h40c4.410156 0 8 3.316406 8 7.390625v184.273437c0 6.222657-5.382812 11.285157-12 11.285157zm-208-194.949219v183.664062c0 1.8125 1.792969 3.285157 4 3.285157h204c2.207031 0 4-1.472657 4-3.285157v-183.664062h-40v21.851562c0 4.074219-3.589844 7.390625-8 7.390625h-32c-4.410156 0-8-3.316406-8-7.390625v-21.851562h-36v21.851562c0 4.074219-3.589844 7.390625-8 7.390625h-32c-4.410156 0-8-3.316406-8-7.390625v-21.851562zm0 0"/></g><path d="m280.65625 5.148438h-36.65625v28h36.65625c1.957031 0 2.746094-2.515626 1.144531-3.636719l-12.460937-8.722657c-1.136719-.796874-1.136719-2.480468 0-3.277343l12.460937-8.722657c1.601563-1.121093.808594-3.640624-1.144531-3.640624zm0 0" fill="#ffea92"/><path d="m472.65625 47.4375h-36.65625v28h36.65625c1.957031 0 2.746094-2.519531 1.144531-3.640625l-12.460937-8.722656c-1.136719-.796875-1.136719-2.480469 0-3.277344l12.460937-8.722656c1.601563-1.121094.808594-3.636719-1.144531-3.636719zm0 0" fill="#ffea92"/><path d="m280.65625 37.148438h-36.65625c-2.207031 0-4-1.789063-4-4v-28c0-2.207032 1.792969-4 4-4h36.65625c2.632812 0 4.933594 1.6875 5.722656 4.199218.792969 2.511719-.125 5.210938-2.285156 6.71875l-10.121094 7.082032 10.125 7.085937c2.15625 1.507813 3.074219 4.207031 2.28125 6.71875-.792968 2.511719-3.089844 4.195313-5.722656 4.195313zm-32.65625-8h26.308594l-7.261719-5.082032c-1.601563-1.125-2.5625-2.960937-2.5625-4.917968 0-1.953126.960937-3.789063 2.558594-4.914063l7.265625-5.085937h-26.308594zm32.65625-20h.019531zm0 0" fill="#3762cc"/><path d="m472.65625 79.4375h-36.65625c-2.207031 0-4-1.792969-4-4v-28c0-2.207031 1.792969-4 4-4h36.65625c2.632812 0 4.933594 1.6875 5.722656 4.199219.792969 2.507812-.125 5.207031-2.285156 6.71875l-10.121094 7.082031 10.121094 7.085938c2.15625 1.507812 3.074219 4.207031 2.28125 6.71875-.789062 2.507812-3.085938 4.195312-5.71875 4.195312zm-32.65625-8h26.308594l-7.261719-5.085938c-1.601563-1.121093-2.5625-2.957031-2.5625-4.914062s.960937-3.792969 2.5625-4.914062l7.261719-5.085938h-26.308594zm32.65625-20h.019531zm0 0" fill="#3762cc"/><path d="m286.726562 477.148438h-85.453124c-2.210938 0-4-1.789063-4-4v-51.269532c0-25.765625 20.960937-46.730468 46.726562-46.730468s46.726562 20.964843 46.726562 46.730468v51.269532c0 2.210937-1.789062 4-4 4zm-81.453124-8h77.453124v-47.269532c0-21.355468-17.371093-38.730468-38.726562-38.730468s-38.726562 17.375-38.726562 38.730468zm0 0" fill="#3762cc"/><path d="m70 339.648438h-36c-2.207031 0-4-1.789063-4-4v-32c0-12.128907 9.871094-22 22-22s22 9.871093 22 22v32c0 2.210937-1.792969 4-4 4zm-32-8h28v-28c0-7.71875-6.28125-14-14-14s-14 6.28125-14 14zm0 0" fill="#3762cc"/><path d="m454 339.648438h-36c-2.207031 0-4-1.789063-4-4v-32c0-12.128907 9.871094-22 22-22s22 9.871093 22 22v32c0 2.210937-1.792969 4-4 4zm-32-8h28v-28c0-7.71875-6.28125-14-14-14s-14 6.28125-14 14zm0 0" fill="#3762cc"/><path d="m357.160156 46.199219c-3.066406 6.707031-8.160156 12.296875-14.5 15.988281-1.136718.664062-1.136718 2.269531 0 2.933594 6.339844 3.691406 11.433594 9.28125 14.5 15.988281.597656 1.304687 2.457032 1.304687 3.050782 0 3.070312-6.707031 8.164062-12.296875 14.5-15.988281 1.140624-.664063 1.140624-2.269532 0-2.933594-6.335938-3.695312-11.429688-9.28125-14.5-15.988281-.59375-1.304688-2.453126-1.304688-3.050782 0zm0 0" fill="#ffea92"/><path d="m358.175781 39.214844c-3.496093-.472656-3.5-2.5625-3.507812-8.769532-.003907-2.886718 0-6.734374.003906-10.582031.011719-7.6875.039063-15.375.039063-15.375.003906-2.207031 1.796874-3.988281 4-3.988281h.011718c2.207032.007812 3.992188 1.804688 3.988282 4.011719-.035157 11.53125-.070313 29.160156-.015626 30.46875l-3.988281.265625zm0 0" fill="#f9a7a7"/><path d="m358.171875 127.882812c-3.492187-.472656-3.496094-2.5625-3.503906-8.769531-.003907-2.886719 0-6.734375.003906-10.582031.011719-7.6875.039063-15.375.039063-15.375.003906-2.207031 1.796874-3.988281 4-3.988281h.011718c2.207032.007812 3.992188 1.804687 3.988282 4.011719-.035157 11.53125-.070313 29.160156-.015626 30.46875l-3.988281.265624zm0 0" fill="#f9a7a7"/><path d="m417.453125 68.207031c-.003906 0-.007813 0-.011719 0-11.53125-.035156-29.160156-.070312-30.46875-.011719l-.269531-3.988281-3.964844-.535156c.472657-3.492187 2.5625-3.496094 8.769531-3.507813 2.890626 0 6.734376 0 10.582032.007813 7.6875.011719 15.375.035156 15.375.035156 2.210937.007813 3.996094 1.804688 3.988281 4.011719s-1.796875 3.988281-4 3.988281zm-26.773437-3.558593h.019531zm0 0" fill="#f9a7a7"/><path d="m333.296875 68.253906c-.003906 0-.007813 0-.011719 0-11.53125-.039062-29.160156-.074218-30.46875-.015625l-.269531-3.988281-3.960937-.535156c.46875-3.492188 2.558593-3.496094 8.765624-3.503906 2.886719-.003907 6.738282 0 10.582032.003906 7.6875.011718 15.375.039062 15.375.039062 2.210937.003906 3.996094 1.800782 3.988281 4.011719-.007813 2.203125-1.796875 3.988281-4 3.988281zm-26.773437-3.5625h.019531zm0 0" fill="#f9a7a7"/><path d="m393 101.207031c-1.03125 0-2.058594-.394531-2.839844-1.179687-6.414062-6.464844-16.917968-17.019532-17.808594-17.832032l2.683594-2.9375-.066406-.082031-2.339844-3.246093c2.78125-2.011719 4.421875-.375 8.015625 3.203124 1.699219 1.691407 3.953125 3.953126 6.207031 6.214844 4.5 4.515625 8.988282 9.039063 8.988282 9.039063 1.554687 1.570312 1.546875 4.101562-.023438 5.65625-.78125.777343-1.796875 1.164062-2.816406 1.164062zm-15.613281-18.847656h.019531zm0 0" fill="#f9a7a7"/><path d="m345 53.273438c-1.03125 0-2.058594-.394532-2.839844-1.183594-6.414062-6.460938-16.917968-17.019532-17.808594-17.832032l2.683594-2.9375-.066406-.082031-2.339844-3.246093c2.78125-2.011719 4.421875-.375 8.015625 3.207031 1.699219 1.6875 3.953125 3.949219 6.207031 6.210937 4.5 4.519532 8.988282 9.042969 8.988282 9.042969 1.554687 1.566406 1.546875 4.097656-.023438 5.65625-.777344.777344-1.796875 1.164063-2.816406 1.164063zm-15.609375-18.847657h.019531zm0 0" fill="#f9a7a7"/><path d="m327 101.207031c-1.03125 0-2.058594-.394531-2.839844-1.179687-1.554687-1.570313-1.542968-4.101563.023438-5.65625 6.460937-6.414063 17.019531-16.917969 17.832031-17.8125l2.9375 2.683594.082031-.0625 3.246094-2.339844c2.007812 2.78125.375 4.421875-3.207031 8.011718-1.6875 1.699219-3.949219 3.953126-6.210938 6.207032-4.515625 4.5-9.042969 8.988281-9.042969 8.988281-.78125.773437-1.800781 1.160156-2.820312 1.160156zm0 0" fill="#f9a7a7"/><path d="m374.9375 53.210938c-1.03125 0-2.058594-.394532-2.839844-1.183594-1.554687-1.566406-1.546875-4.097656.023438-5.65625 6.460937-6.414063 17.015625-16.917969 17.832031-17.808594l2.933594 2.679688.085937-.0625 3.242188-2.339844c2.011718 2.785156.378906 4.421875-3.203125 8.015625-1.691407 1.695312-3.949219 3.949219-6.210938 6.203125-4.519531 4.5-9.042969 8.992187-9.042969 8.992187-.785156.769531-1.800781 1.160157-2.820312 1.160157zm0 0" fill="#f9a7a7"/><path d="m342.445312 15.289062c-1.34375 2.9375-3.574218 5.386719-6.351562 7.003907-.496094.289062-.496094.992187 0 1.28125 2.777344 1.621093 5.007812 4.066406 6.351562 7.003906.261719.570313 1.074219.570313 1.335938 0 1.34375-2.9375 3.574219-5.386719 6.347656-7.003906.5-.289063.5-.992188 0-1.28125-2.773437-1.617188-5.003906-4.066407-6.347656-7.003907-.261719-.570312-1.074219-.570312-1.335938 0zm0 0" fill="#ffea92"/><path d="m373.550781 15.289062c-1.34375 2.9375-3.574219 5.386719-6.347656 7.003907-.5.289062-.5.992187 0 1.28125 2.773437 1.621093 5.003906 4.066406 6.347656 7.003906.261719.570313 1.074219.570313 1.335938 0 1.34375-2.9375 3.574219-5.386719 6.351562-7.003906.496094-.289063.496094-.992188 0-1.28125-2.777343-1.617188-5.007812-4.066407-6.351562-7.003907-.261719-.570312-1.074219-.570312-1.335938 0zm0 0" fill="#ffea92"/><path d="m342.445312 100.898438c-1.34375 2.9375-3.574218 5.382812-6.351562 7-.496094.292968-.496094.996093 0 1.285156 2.777344 1.617187 5.007812 4.0625 6.351562 7.003906.261719.570312 1.074219.570312 1.335938 0 1.34375-2.941406 3.574219-5.386719 6.347656-7.003906.5-.289063.5-.992188 0-1.285156-2.773437-1.617188-5.003906-4.0625-6.347656-7-.261719-.570313-1.074219-.570313-1.335938 0zm0 0" fill="#ffea92"/><path d="m373.550781 100.898438c-1.34375 2.9375-3.574219 5.382812-6.347656 7-.5.292968-.5.996093 0 1.285156 2.773437 1.617187 5.003906 4.0625 6.347656 7.003906.261719.570312 1.074219.570312 1.335938 0 1.34375-2.941406 3.574219-5.386719 6.351562-7.003906.496094-.289063.496094-.992188 0-1.285156-2.777343-1.617188-5.007812-4.0625-6.351562-7-.261719-.570313-1.074219-.570313-1.335938 0zm0 0" fill="#ffea92"/><path d="m401.410156 72.160156c-1.34375 2.941406-3.574218 5.386719-6.351562 7.003906-.496094.289063-.496094.992188 0 1.285157 2.777344 1.617187 5.007812 4.0625 6.351562 7 .261719.570312 1.074219.570312 1.335938 0 1.34375-2.9375 3.574218-5.386719 6.351562-7 .496094-.292969.496094-.996094 0-1.285157-2.777344-1.617187-5.007812-4.0625-6.351562-7.003906-.261719-.566406-1.074219-.566406-1.335938 0zm0 0" fill="#ffea92"/><path d="m401.410156 41.054688c-1.34375 2.9375-3.574218 5.382812-6.351562 7-.496094.292968-.496094.996093 0 1.285156 2.777344 1.617187 5.007812 4.0625 6.351562 7.003906.261719.566406 1.074219.566406 1.335938 0 1.34375-2.941406 3.574218-5.386719 6.351562-7.003906.496094-.289063.496094-.992188 0-1.285156-2.777344-1.617188-5.007812-4.0625-6.351562-7-.261719-.570313-1.074219-.570313-1.335938 0zm0 0" fill="#ffea92"/><path d="m317.253906 72.160156c-1.34375 2.941406-3.574218 5.386719-6.351562 7.003906-.496094.289063-.496094.992188 0 1.285157 2.777344 1.617187 5.007812 4.0625 6.351562 7 .261719.570312 1.074219.570312 1.335938 0 1.34375-2.9375 3.574218-5.386719 6.351562-7 .496094-.292969.496094-.996094 0-1.285157-2.777344-1.617187-5.007812-4.0625-6.351562-7.003906-.261719-.566406-1.074219-.566406-1.335938 0zm0 0" fill="#ffea92"/><path d="m317.253906 41.054688c-1.34375 2.9375-3.574218 5.382812-6.351562 7-.496094.292968-.496094.996093 0 1.285156 2.777344 1.617187 5.007812 4.0625 6.351562 7.003906.261719.566406 1.074219.566406 1.335938 0 1.34375-2.941406 3.574218-5.386719 6.351562-7.003906.496094-.289063.496094-.992188 0-1.285156-2.777344-1.617188-5.007812-4.0625-6.351562-7-.261719-.570313-1.074219-.570313-1.335938 0zm0 0" fill="#ffea92"/><path d="m358.664062 265.148438c-2.207031 0-4-1.789063-4-4v-112.117188c0-2.207031 1.792969-4 4-4 2.210938 0 4 1.792969 4 4v112.117188c0 2.210937-1.789062 4-4 4zm0 0" fill="#f9a7a7"/><path d="m128.664062 265.207031c-2.207031 0-4-1.792969-4-4v-75.601562c0-2.207031 1.792969-4 4-4 2.210938 0 4 1.792969 4 4v75.601562c0 2.210938-1.789062 4-4 4zm0 0" fill="#f9a7a7"/></svg>